<svg id="wave" style="transform:rotate(180deg); transition: 0.3s" viewBox="0 0 1440 490" version="1.1" xmlns="http://www.w3.org/2000/svg"><defs><linearGradient id="sw-gradient-0" x1="0" x2="0" y1="1" y2="0"><stop stop-color="rgba(243, 106, 62, 1)" offset="0%"></stop><stop stop-color="rgba(255, 179, 11, 1)" offset="100%"></stop></linearGradient></defs><path style="transform:translate(0, 0px); opacity:1" fill="url(#sw-gradient-0)" d="M0,49L60,73.5C120,98,240,147,360,179.7C480,212,600,229,720,245C840,261,960,278,1080,285.8C1200,294,1320,294,1440,318.5C1560,343,1680,392,1800,416.5C1920,441,2040,441,2160,416.5C2280,392,2400,343,2520,269.5C2640,196,2760,98,2880,49C3000,0,3120,0,3240,0C3360,0,3480,0,3600,32.7C3720,65,3840,131,3960,204.2C4080,278,4200,359,4320,359.3C4440,359,4560,278,4680,269.5C4800,261,4920,327,5040,302.2C5160,278,5280,163,5400,98C5520,33,5640,16,5760,32.7C5880,49,6000,98,6120,122.5C6240,147,6360,147,6480,130.7C6600,114,6720,82,6840,73.5C6960,65,7080,82,7200,81.7C7320,82,7440,65,7560,106.2C7680,147,7800,245,7920,253.2C8040,261,8160,180,8280,196C8400,212,8520,327,8580,383.8L8640,441L8640,490L8580,490C8520,490,8400,490,8280,490C8160,490,8040,490,7920,490C7800,490,7680,490,7560,490C7440,490,7320,490,7200,490C7080,490,6960,490,6840,490C6720,490,6600,490,6480,490C6360,490,6240,490,6120,490C6000,490,5880,490,5760,490C5640,490,5520,490,5400,490C5280,490,5160,490,5040,490C4920,490,4800,490,4680,490C4560,490,4440,490,4320,490C4200,490,4080,490,3960,490C3840,490,3720,490,3600,490C3480,490,3360,490,3240,490C3120,490,3000,490,2880,490C2760,490,2640,490,2520,490C2400,490,2280,490,2160,490C2040,490,1920,490,1800,490C1680,490,1560,490,1440,490C1320,490,1200,490,1080,490C960,490,840,490,720,490C600,490,480,490,360,490C240,490,120,490,60,490L0,490Z"></path></svg>